<svg width="200" height="200" viewBox="0 0 200 200" fill="none" xmlns="http://www.w3.org/2000/svg">
<path d="M176.128 72.6703L176.689 73.2284C176.509 73.0374 176.324 72.8503 176.128 72.6703ZM178.796 76.4115C178.649 76.6965 178.521 76.9272 178.382 77.1522C177.924 77.9002 177.373 78.6062 176.726 79.2552L137.544 118.439H91.43L52.245 79.2552C51.387 78.3962 50.698 77.4385 50.176 76.4115C50.384 75.9405 50.622 75.4852 50.89 75.0502C51.217 74.4762 51.589 73.9212 52.071 73.4422C52.455 73.0432 52.655 72.8441 52.865 72.6551L106.528 38.2962C110.924 33.9012 118.049 33.9012 122.443 38.2962L176.129 72.6712C176.324 72.8522 176.511 73.0384 176.69 73.2294C177.315 73.8534 177.678 74.3745 177.997 74.9125C178.298 75.3895 178.566 75.8895 178.796 76.4115Z" fill="#6245C9"/>
<path d="M60.426 164.282H168.555C172.508 164.258 175.98 162.199 177.972 159.094C177.608 158.578 177.194 158.084 176.73 157.625L137.547 118.439H91.4339L52.249 157.625C51.787 158.084 51.373 158.578 51.007 159.094C52.999 162.199 56.47 164.257 60.426 164.282Z" fill="url(#paint0_linear_2866_282)"/>
<path d="M137.544 118.44L176.728 157.626C177.192 158.088 177.606 158.579 177.97 159.095C179.092 157.344 179.744 155.265 179.744 153.032V80.9346C179.744 79.3296 179.405 77.7985 178.8 76.4165C178.275 77.4375 177.585 78.4003 176.728 79.2573L137.544 118.44Z" fill="url(#paint1_linear_2866_282)"/>
<path d="M49.2379 80.8174V153.13C49.2579 155.323 49.9049 157.367 51.0089 159.09C51.3729 158.575 51.7869 158.081 52.2499 157.621L91.4339 118.435L52.2499 79.2495C51.3939 78.3945 50.7019 77.4322 50.1809 76.4072C49.5869 77.7622 49.2529 79.2514 49.2379 80.8174Z" fill="url(#paint2_linear_2866_282)"/>
<path d="M60.426 164.282H168.555C172.508 164.258 175.98 162.199 177.972 159.094C177.608 158.578 177.194 158.084 176.73 157.625L151.666 132.559C139.983 131.587 127.483 131.061 114.49 131.061C101.5 131.061 88.999 131.587 77.316 132.559L52.25 157.625C51.788 158.084 51.374 158.578 51.01 159.094C52.999 162.199 56.472 164.257 60.426 164.282Z" fill="url(#paint3_linear_2866_282)"/>
<path d="M179.744 135.991V153.027C179.744 155.261 179.092 157.343 177.97 159.094C177.606 158.575 177.192 158.085 176.728 157.621L151.664 132.559C161.694 133.39 171.123 134.553 179.744 135.991Z" fill="#544EEC"/>
<path d="M49.2379 135.991V153.131C49.2579 155.329 49.9049 157.371 51.0089 159.095C51.3729 158.576 51.7869 158.086 52.2499 157.622L77.3149 132.56C67.2839 133.39 57.8589 134.553 49.2379 135.991Z" fill="url(#paint4_linear_2866_282)"/>
<path d="M20 80.6646C20 59.2676 37.344 41.9233 58.737 41.9233C80.133 41.9233 97.476 59.2676 97.476 80.6646C97.476 102.059 80.132 119.401 58.737 119.401C37.344 119.401 20 102.058 20 80.6646Z" fill="#26D9D9"/>
<path d="M83.532 110.43C76.813 116.031 68.17 119.401 58.738 119.401C55.522 119.401 52.3971 119.009 49.4091 118.271V80.9976C49.4091 79.3916 49.7471 77.8605 50.3521 76.4795C50.8731 77.5015 51.565 78.4624 52.42 79.3184L83.532 110.43Z" fill="#01A4DA"/>
<path d="M85.049 52.2305C92.692 59.3055 97.477 69.4246 97.477 80.6646C97.477 92.6266 92.053 103.326 83.532 110.432L52.421 79.3193C51.566 78.4643 50.874 77.5035 50.353 76.4805C50.56 76.0095 50.798 75.5536 51.069 75.1196C51.392 74.5436 51.767 73.9922 52.246 73.5122C52.631 73.1152 52.83 72.9156 53.039 72.7246L85.049 52.2305Z" fill="#0071DB"/>
<path d="M39.198 95.1626V97.3174V103.752C44.709 104.769 51.453 105.366 58.738 105.366C66.023 105.366 72.769 104.768 78.281 103.752V95.1626L78.274 94.7822C78.128 88.1942 74.144 82.5534 68.468 80.0044C72.108 77.1274 74.446 72.6733 74.446 67.6733C74.446 58.9973 67.414 51.9653 58.738 51.9653C50.063 51.9653 43.032 58.9973 43.032 67.6733C43.032 72.6733 45.368 77.1274 49.01 80.0044C43.225 82.6024 39.198 88.4126 39.198 95.1626Z" fill="#80FFFF"/>
<path d="M50.01 89.2085L56.626 96.4526L67.091 83.8623L70.079 87.1313L56.763 103.114L47.16 92.5996L50.01 89.2085Z" fill="#01A4DA"/>
<path d="M178.796 76.4116C178.649 76.6956 178.522 76.9253 178.381 77.1523C177.926 77.8983 177.376 78.6045 176.729 79.2505L159.348 96.6323H133.26V101.637C133.26 103.883 130.948 105.102 129.612 105.102C127.367 105.102 125.323 102.494 123.016 100.612C116.307 95.1453 110.288 90.4904 103.775 84.3604C101.979 82.6704 102.092 79.6802 103.775 78.1172C110.326 72.0322 116.307 67.3322 123.016 61.8652C125.323 59.9832 127.367 57.3745 129.612 57.3745C130.948 57.3745 133.26 58.5943 133.26 60.8403V65.8442H165.464L176.131 72.6743C176.323 72.8543 176.512 73.0394 176.693 73.2314C177.315 73.8544 177.678 74.3735 177.997 74.9155C178.3 75.3895 178.567 75.8886 178.796 76.4116Z" fill="#BDA6FD"/>
<defs>
<linearGradient id="paint0_linear_2866_282" x1="50.7921" y1="155.338" x2="179.141" y2="132.82" gradientUnits="userSpaceOnUse">
<stop stop-color="#5417FA"/>
<stop offset="0.7294" stop-color="#9873FC"/>
<stop offset="1" stop-color="#C0AAFD"/>
</linearGradient>
<linearGradient id="paint1_linear_2866_282" x1="141.667" y1="146.609" x2="206.916" y2="95.3348" gradientUnits="userSpaceOnUse">
<stop stop-color="#5417FA"/>
<stop offset="1" stop-color="#C0AAFD"/>
</linearGradient>
<linearGradient id="paint2_linear_2866_282" x1="48.0972" y1="118.202" x2="91.3135" y2="110.345" gradientUnits="userSpaceOnUse">
<stop stop-color="#5417FA"/>
<stop offset="1" stop-color="#C0AAFD"/>
</linearGradient>
<linearGradient id="paint3_linear_2866_282" x1="51.0079" y1="147.67" x2="177.971" y2="147.67" gradientUnits="userSpaceOnUse">
<stop stop-color="#4605FA"/>
<stop offset="1" stop-color="#21C5BE"/>
</linearGradient>
<linearGradient id="paint4_linear_2866_282" x1="48.9125" y1="147.794" x2="77.2446" y2="141.936" gradientUnits="userSpaceOnUse">
<stop stop-color="#4D2BF3"/>
<stop offset="1" stop-color="#19C1B8"/>
</linearGradient>
</defs>
</svg>
